<?xml version="1.0" standalone="no"?>
<!DOCTYPE svg PUBLIC "-//W3C//DTD SVG 20010904//EN"
 "http://www.w3.org/TR/2001/REC-SVG-20010904/DTD/svg10.dtd">
<svg version="1.0" xmlns="http://www.w3.org/2000/svg"
 width="492.000000pt" height="190.000000pt" viewBox="0 0 492.000000 190.000000"
 preserveAspectRatio="xMidYMid meet">

<g transform="translate(0.000000,190.000000) scale(0.100000,-0.100000)"
fill="#000000" stroke="none">
<path d="M2311 1525 c-51 -16 -95 -55 -122 -107 -18 -35 -19 -64 -19 -495 0
-456 0 -459 23 -503 13 -26 40 -57 65 -75 l44 -30 1046 -3 c726 -2 1058 0
1084 8 48 14 94 53 119 101 19 38 19 57 17 512 l-3 473 -27 41 c-17 25 -45 49
-75 64 l-48 24 -1030 2 c-850 2 -1038 -1 -1074 -12z m1759 -322 c0 -172 1
-186 15 -165 25 34 98 72 153 79 74 8 142 -18 192 -74 46 -53 60 -90 67 -189
12 -163 -57 -298 -176 -340 -81 -29 -198 -6 -235 47 l-16 23 0 -37 0 -38 -87
3 -88 3 -3 425 c-1 234 0 431 3 438 3 8 31 12 90 12 l85 0 0 -187z m-1580 -28
l0 -165 175 0 175 0 0 165 0 165 85 0 85 0 0 -415 0 -415 -85 0 -85 0 0 170 0
170 -175 0 -175 0 -2 -167 -3 -168 -87 -3 -88 -3 0 416 0 415 90 0 90 0 0
-165z m862 -281 l3 -206 34 -30 c29 -26 40 -29 73 -25 22 3 49 14 60 24 41 36
48 73 48 263 l0 180 85 0 85 0 0 -295 0 -295 -85 0 -85 0 0 46 0 45 -34 -35
c-78 -84 -215 -90 -293 -14 -54 52 -63 101 -63 340 l0 208 84 0 84 0 4 -206z"/>
<path d="M4116 949 c-42 -36 -62 -111 -51 -191 20 -142 178 -172 235 -45 25
53 26 155 4 203 -23 47 -50 64 -106 64 -38 0 -54 -6 -82 -31z"/>
<path d="M1230 950 l0 -440 85 0 85 0 0 440 0 440 -85 0 -85 0 0 -440z"/>
<path d="M925 1355 c-33 -32 -33 -84 -2 -120 18 -22 31 -27 71 -27 63 0 96 29
96 84 0 56 -34 88 -95 88 -35 0 -52 -6 -70 -25z"/>
<path d="M320 925 l0 -416 88 3 87 3 3 163 2 162 135 0 135 0 0 70 0 70 -135
0 -135 0 0 111 0 110 145 -3 145 -3 0 73 0 72 -235 0 -235 0 0 -415z"/>
<path d="M1725 1103 c-101 -36 -163 -105 -190 -209 -19 -73 -19 -115 0 -188
21 -80 62 -136 127 -171 50 -28 60 -30 163 -30 84 0 121 4 158 19 l47 19 0 63
0 63 -47 -21 c-34 -15 -69 -22 -118 -22 -101 -1 -151 31 -169 107 l-6 27 196
0 197 0 -5 83 c-5 92 -28 155 -74 201 -65 65 -189 91 -279 59z m139 -114 c27
-13 56 -64 56 -98 0 -20 -5 -21 -114 -21 l-115 0 10 33 c5 17 24 47 44 65 37
34 74 41 119 21z"/>
<path d="M910 805 l0 -295 85 0 85 0 0 295 0 295 -85 0 -85 0 0 -295z"/>
</g>
</svg>
